HIERARCHY
ROOT Hips
{
	OFFSET 0.000000 0.000000 0.000000
	CHANNELS 6 Xposition Yposition Zposition Xrotation Yrotation Zrotation
	JOINT LeftUpLeg_virtual
	{
		OFFSET 0.000000 0.000000 0.000000
		CHANNELS 3 Xrotation Yrotation Zrotation
		JOINT LeftUpLeg
		{
			OFFSET 15.427100 -6.655098 0.678600
			CHANNELS 3 Xrotation Yrotation Zrotation
			JOINT LeftLeg
			{
				OFFSET 4.081073 -39.591068 13.024000
				CHANNELS 3 Xrotation Yrotation Zrotation
				JOINT LeftFoot
				{
					OFFSET -4.081074 -37.707932 -15.979700
					CHANNELS 3 Xrotation Yrotation Zrotation
					JOINT LeftToeBase
					{
						OFFSET 5.346399 -15.068900 20.645000
						CHANNELS 3 Xrotation Yrotation Zrotation
						JOINT LeftToe_End
						{
							OFFSET 2.754700 0.931300 11.300900
							CHANNELS 3 Xrotation Yrotation Zrotation
							End Site
							{
								OFFSET 0 0 0
							}
						}
					}
				}
			}
		}
	}
	JOINT RightUpLeg_virtual
	{
		OFFSET 0.000000 0.000000 0.000000
		CHANNELS 3 Xrotation Yrotation Zrotation
		JOINT RightUpLeg
		{
			OFFSET -15.569500 -6.655098 0.678600
			CHANNELS 3 Xrotation Yrotation Zrotation
			JOINT RightLeg
			{
				OFFSET -4.081825 -39.591045 13.023800
				CHANNELS 3 Xrotation Yrotation Zrotation
				JOINT RightFoot
				{
					OFFSET 4.081824 -37.707954 -15.979600
					CHANNELS 3 Xrotation Yrotation Zrotation
					JOINT RightToeBase
					{
						OFFSET -5.346400 -15.068900 20.645000
						CHANNELS 3 Xrotation Yrotation Zrotation
						JOINT RightToe_End
						{
							OFFSET -2.754700 0.931300 11.300900
							CHANNELS 3 Xrotation Yrotation Zrotation
							End Site
							{
								OFFSET 0 0 0
							}
						}
					}
				}
			}
		}
	}
	JOINT Spine_virtual
	{
		OFFSET 0.000000 0.000000 0.000000
		CHANNELS 3 Xrotation Yrotation Zrotation
		JOINT Spine
		{
			OFFSET -0.279200 12.230698 -2.892100
			CHANNELS 3 Xrotation Yrotation Zrotation
			JOINT Spine1
			{
				OFFSET -0.232667 10.192268 -1.242267
				CHANNELS 3 Xrotation Yrotation Zrotation
				JOINT Spine1_split
				{
					OFFSET -0.232667 10.192268 -1.242267
					CHANNELS 3 Xrotation Yrotation Zrotation
					JOINT Spine2
					{
						OFFSET -0.232667 10.192268 -1.242267
						CHANNELS 3 Xrotation Yrotation Zrotation
						JOINT Neck_virtual
						{
							OFFSET 0.000000 0.000000 0.000000
							CHANNELS 3 Xrotation Yrotation Zrotation
							JOINT Neck
							{
								OFFSET -0.418800 17.814194 8.416900
								CHANNELS 3 Xrotation Yrotation Zrotation
								JOINT Head
								{
									OFFSET 0.000000 7.031097 3.806800
									CHANNELS 3 Xrotation Yrotation Zrotation
									JOINT HeadTop_End
									{
										OFFSET 0.000000 24.646606 12.978600
										CHANNELS 3 Xrotation Yrotation Zrotation
										End Site
										{
											OFFSET 0 0 0
										}
									}
								}
							}
						}
						JOINT LeftShoulder_virtual
						{
							OFFSET 0.000000 0.000000 0.000000
							CHANNELS 3 Xrotation Yrotation Zrotation
							JOINT LeftShoulder
							{
								OFFSET 8.476499 7.247704 -3.868750
								CHANNELS 3 Xrotation Yrotation Zrotation
								JOINT LeftShoulder_split
								{
									OFFSET 8.476499 7.247704 -3.868750
									CHANNELS 3 Xrotation Yrotation Zrotation
									JOINT LeftArm
									{
										OFFSET 9.308998 -2.777710 0.208600
										CHANNELS 3 Xrotation Yrotation Zrotation
										JOINT LeftForeArm
										{
											OFFSET 29.972298 0.000000 0.000000
											CHANNELS 3 Xrotation Yrotation Zrotation
											JOINT LeftHand
											{
												OFFSET 26.026505 0.000000 0.000000
												CHANNELS 3 Xrotation Yrotation Zrotation
												End Site
												{
													OFFSET 0 0 0
												}
											}
										}
									}
								}
							}
						}
						JOINT RightShoulder_virtual
						{
							OFFSET 0.000000 0.000000 0.000000
							CHANNELS 3 Xrotation Yrotation Zrotation
							JOINT RightShoulder
							{
								OFFSET -7.570500 7.247704 -3.868750
								CHANNELS 3 Xrotation Yrotation Zrotation
								JOINT RightShoulder_split
								{
									OFFSET -7.570500 7.247704 -3.868750
									CHANNELS 3 Xrotation Yrotation Zrotation
									JOINT RightArm
									{
										OFFSET -9.308998 -2.777710 0.208500
										CHANNELS 3 Xrotation Yrotation Zrotation
										JOINT RightForeArm
										{
											OFFSET -29.972300 0.000000 0.000000
											CHANNELS 3 Xrotation Yrotation Zrotation
											JOINT RightHand
											{
												OFFSET -26.026505 0.000000 0.000000
												CHANNELS 3 Xrotation Yrotation Zrotation
												End Site
												{
													OFFSET 0 0 0
												}
											}
										}
									}
								}
							}
						}
					}
				}
			}
		}
	}
}
MOTION
Frames: 4
Frame Time: 0.03333333
3.889507 10.637840 -0.460493 0.000000 0.000000 0.000000 87.459923 0.099678 1.495696 -11.391071 6.545671 10.597948 16.966439 13.814613 3.055542 48.743283 25.905907 -19.041983 6.473194 1.462260 13.237398 0.000000 0.000000 0.000000 87.459923 0.099678 1.495696 -10.596750 -7.787175 -13.127168 17.870920 -15.719774 -3.035261 49.043559 -24.743854 27.889218 9.288630 -0.895407 -9.923552 0.000000 0.000000 0.000000 87.459923 0.099678 1.495696 3.817739 0.546248 -1.558710 0.793258 0.138199 -0.141419 0.000000 0.000000 0.000000 0.000000 0.000000 0.000000 0.792541 0.141294 -0.141442 -5.136625 -13.863059 6.464559 -18.401156 -57.030973 -18.459189 0.000000 0.000000 0.000000 0.792541 0.141294 -0.141442 3.766312 -21.296509 -1.257002 0.000000 0.000000 0.000000 15.600405 -18.626723 -61.954447 0.000018 -18.654961 -0.000000 0.000000 0.000000 0.000000 0.792541 0.141294 -0.141442 0.640286 15.700658 9.197082 0.000000 0.000000 0.000000 13.898617 -3.320481 53.523480 -0.000018 31.875318 0.000008 0.000000 0.000000 0.000000 
3.888175 10.641823 -0.462708 0.000000 0.000000 0.000000 87.458120 0.107962 1.499893 -11.388227 6.546541 10.592179 16.970681 13.836753 3.073262 48.743881 25.923609 -19.107248 6.484352 1.456813 13.209648 0.000000 0.000000 0.000000 87.458120 0.107962 1.499893 -10.602715 -7.791084 -13.135968 17.881893 -15.717452 -3.028186 49.047438 -24.742422 27.889156 9.296407 -0.894532 -9.918331 0.000000 0.000000 0.000000 87.458120 0.107962 1.499893 3.816649 0.539608 -1.558528 0.792723 0.136766 -0.140974 0.000000 0.000000 0.000000 0.000000 0.000000 0.000000 0.792047 0.139859 -0.141001 -5.125197 -13.862460 6.457387 -18.396667 -57.041676 -18.453986 0.000000 0.000000 0.000000 0.792047 0.139859 -0.141001 3.780976 -21.376645 -1.256570 0.000000 0.000000 0.000000 15.556886 -18.576988 -61.979698 -0.000004 -18.573173 0.000004 0.000000 0.000000 0.000000 0.792047 0.139859 -0.141001 0.640458 15.698713 9.195480 0.000000 0.000000 0.000000 13.865614 -3.329065 53.534920 0.000016 31.844029 0.000007 0.000000 0.000000 0.000000 
3.884505 10.648422 -0.468636 0.000000 0.000000 0.000000 87.471767 0.110554 1.510773 -11.410430 6.532665 10.572203 16.973428 13.829280 3.089050 48.756318 25.933504 -19.120742 6.487127 1.456996 13.210304 0.000000 0.000000 0.000000 87.471767 0.110554 1.510773 -10.611828 -7.791953 -13.146078 17.901636 -15.754724 -3.051432 49.026586 -24.725205 27.992239 9.385763 -0.885722 -9.857752 0.000000 0.000000 0.000000 87.471767 0.110554 1.510773 3.802562 0.536014 -1.559941 0.789348 0.135991 -0.140070 0.000000 0.000000 0.000000 0.000000 0.000000 0.000000 0.788648 0.139073 -0.140101 -5.121946 -13.861131 6.450677 -18.398293 -57.039774 -18.468003 0.000000 0.000000 0.000000 0.788648 0.139073 -0.140101 3.778160 -21.356432 -1.261995 0.000000 0.000000 0.000000 15.442656 -18.624181 -61.994779 -0.000001 -18.349249 0.000010 0.000000 0.000000 0.000000 0.788648 0.139073 -0.140101 0.641332 15.722650 9.188437 0.000000 0.000000 0.000000 13.818463 -3.398192 53.553150 -0.000009 31.811469 0.000008 0.000000 0.000000 0.000000 
3.885175 10.655212 -0.475670 0.000000 0.000000 0.000000 87.435123 0.110083 1.506262 -11.388914 6.547625 10.585437 16.987130 13.819109 3.077769 48.746363 25.937529 -19.093235 6.482713 1.456732 13.209675 0.000000 0.000000 0.000000 87.435123 0.110083 1.506262 -10.578774 -7.794024 -13.138479 17.912607 -15.758840 -3.054988 49.010012 -24.723895 27.993525 9.415486 -0.884171 -9.846372 0.000000 0.000000 0.000000 87.435123 0.110083 1.506262 3.832800 0.538921 -1.548417 0.796336 0.136675 -0.137240 0.000000 0.000000 0.000000 0.000000 0.000000 0.000000 0.795648 0.139802 -0.137271 -5.115518 -13.859015 6.442780 -18.374886 -57.041505 -18.453858 0.000000 0.000000 0.000000 0.795648 0.139802 -0.137271 3.802384 -21.484637 -1.265553 0.000000 0.000000 0.000000 15.394068 -18.473806 -62.000291 0.000006 -18.315617 -0.000009 0.000000 0.000000 0.000000 0.795648 0.139802 -0.137271 0.639790 15.714028 9.202235 0.000000 0.000000 0.000000 13.755839 -3.457560 53.523487 -0.000011 31.811579 0.000005 0.000000 0.000000 0.000000 
